<svg width="17" height="17" viewBox="0 0 17 17" fill="none" xmlns="http://www.w3.org/2000/svg">
<path d="M16.062 0H0.937981C0.419948 0 0 0.419948 0 0.937981V16.062C0 16.5801 0.419948 17 0.937981 17H16.062C16.5801 17 17 16.5801 17 16.062V0.937981C17 0.419948 16.5801 0 16.062 0Z" fill="#3D5A98"/>
<path d="M11.7283 16.9986V10.4155H13.9375L14.2679 7.85005H11.7283V6.21253C11.7283 5.46991 11.9351 4.96285 12.9995 4.96285H14.3584V2.66458C13.7004 2.59601 13.0391 2.5634 12.3776 2.56691C10.4212 2.56691 9.0738 3.75913 9.0738 5.95829V7.85005H6.86459V10.4155H9.0738V16.9986H11.7283Z" fill="white"/>
</svg>
